<svg width="2214" height="2518" viewBox="0 0 2214 2518" fill="none" xmlns="http://www.w3.org/2000/svg">
<path d="M970.015 652.321C1033.62 529.791 1088.82 402.665 1172.8 291.172C1221.33 226.78 1274.64 166.736 1354.33 137.486C1473.6 93.7838 1571.34 153.769 1580.12 277.494C1589.44 407.805 1545.56 528.18 1502.53 648.299C1487.03 691.418 1470.54 734.161 1454.49 777.095C1430.48 817.652 1409.36 859.557 1390.97 910.181C1440.64 877.413 1469.13 837.166 1497.05 796.308C1561.81 729.721 1620.24 656.409 1703.06 609.188C1724.77 596.8 1747.73 585.522 1771.51 577.511C1873.7 542.979 1959.47 603.134 1958.98 709.187C1958.64 783.232 1934.86 852.471 1906.08 919.72C1878.96 983.152 1847.84 1044.97 1818.5 1107.45C1779.19 1157.94 1752.85 1215.15 1725.53 1272.29C1754.98 1253.44 1784.43 1236.83 1802.14 1207.57C1858.07 1162.86 1910.17 1113.23 1977.78 1084.26C2072.9 1043.46 2143.44 1084.32 2151.79 1186.2C2165.36 1351.5 2106.48 1501.11 2036.89 1645.48C1886.92 1956.21 1673.19 2213.48 1351.09 2365.74C1024.83 2519.92 695.786 2519.88 378.687 2341.97C76.8253 2172.58 -6.2174 1751.85 201.278 1485.3C394.96 1236.61 898.922 1171.07 1107.12 1482.73C1143.14 1536.73 1172.46 1593.93 1171.41 1660.33C1170.89 1691.4 1185.11 1710.21 1210.21 1724.21C1245.28 1743.8 1273.46 1771.73 1300.68 1799.92C1337.08 1837.58 1336.34 1884.01 1302.44 1918.34C1270.19 1950.99 1213 1957.36 1180.31 1921.97C1139.78 1878.02 1122.24 1895.53 1091.87 1932.99C992.246 2056.15 773.804 2098.6 630.611 2027.12C529.078 1976.39 467.418 1871.19 483.608 1776.41C499.7 1681.85 593.789 1602.81 711.801 1584.24C783.773 1572.87 855.732 1576.54 927.156 1586.95C939.333 1588.69 952.232 1598.4 959.93 1584.57C968.227 1569.65 955.062 1559 945.793 1547.84C883.304 1471.91 799.701 1440.02 703.137 1438.75C464.451 1435.6 283.242 1587.03 282.568 1816.19C282.051 2011.31 416.134 2188.53 622.552 2245.77C918.432 2327.88 1189.95 2266.46 1432.53 2087.65C1691.3 1896.94 1865.24 1643.37 1976.41 1347.48C1984.87 1325.08 2004.99 1291.65 1985.28 1278.55C1960.61 1262.08 1938.39 1294.97 1919.17 1311.39C1845.74 1374.47 1777.17 1443.06 1698.07 1499.48C1670.41 1519.2 1640.57 1536.8 1609.58 1550.93C1567.72 1569.97 1521.37 1583.91 1481.39 1551.02C1442.32 1518.83 1453.45 1473.37 1464.57 1432.07C1496.03 1315.94 1560.03 1214.4 1618.9 1110.67C1668.07 1024.06 1718.01 937.836 1765.05 850.157C1780.9 820.674 1816.71 776.436 1784.24 756.4C1749.74 735.185 1721.36 784.279 1698.1 811.465C1597.03 929.569 1511.37 1059.71 1402.48 1171.69C1367.46 1207.78 1330.15 1241.43 1285.72 1265.83C1249.78 1285.54 1209.95 1297.02 1172.24 1274.68C1135.32 1252.84 1132.51 1213.94 1134.94 1175.31C1142.79 1053.11 1190.61 941.604 1232.9 828.668C1287.13 683.991 1356.66 544.951 1402 396.982C1410.43 369.362 1429.83 332.555 1397.79 314.524C1362.15 294.539 1343.46 334.724 1326.58 356.579C1257.31 446.218 1215.47 550.918 1165.12 650.921C1097.13 785.831 1039.64 926.191 947.712 1048.53C931.672 1069.81 913.271 1089.61 893.931 1108.07C867.419 1133.39 837.075 1156.13 797.424 1140.71C760.552 1126.44 753.355 1091.28 749.056 1057.47C738.183 972.57 739.835 887.686 751.836 802.82C773.529 650.163 795.766 497.479 816.58 344.653C820.499 316.19 836.462 273.688 803.931 263.468C773.165 253.694 756.479 296.979 742.782 321.556C676.283 440.604 637.42 570.009 603.298 700.565C571.01 824.202 546.422 949.376 532.713 1076.46C525.701 1141.24 481.896 1177.98 420.226 1173.16C363.586 1168.73 327.934 1126.45 336.588 1059.67C360.724 872.972 408.864 691.477 475.439 514.931C521.905 391.654 574.06 271.08 662.771 169.379C688.941 139.381 717.557 112.568 751.723 92.1994C830.317 45.4031 882.786 53.5627 942.635 120.236C951.831 151.778 961.027 183.321 970.114 214.868C981.547 348.168 962.291 479.796 946.093 611.592C930.051 652.499 928.379 695.463 923.067 744.048C951.018 714.815 953.315 680.034 969.45 651.923L970.015 652.321ZM832.266 1743.9C772.205 1747.32 730.27 1747.27 694.445 1773.7C657.468 1801.03 655.116 1845.63 689.762 1872.06C763.242 1928.14 937.407 1891.09 980.788 1810.85C991.361 1791.33 990.881 1779.52 967.556 1770.44C918.018 1751.14 867.187 1740.88 832.266 1743.9Z" fill="#4F26E4"/>
</svg>
