<svg width="12" height="12" viewBox="0 0 12 12" fill="none" xmlns="http://www.w3.org/2000/svg">
<g id="whatsapp">
<rect width="12" height="12" rx="6" fill="#25D366"/>
<path id="Vector" d="M7.84342 6.64374C7.75065 6.59855 7.30257 6.38045 7.21966 6.34902C7.13676 6.31758 7.07754 6.30382 7.02227 6.39421C6.967 6.48459 6.77751 6.69679 6.72619 6.74984C6.67486 6.80289 6.61959 6.81861 6.52879 6.77342C6.26015 6.66514 6.01187 6.51234 5.7945 6.32151C5.59541 6.13775 5.42449 5.92592 5.2872 5.69276C5.23193 5.60238 5.2872 5.55326 5.32865 5.51004C5.37011 5.46681 5.41945 5.40393 5.46485 5.35088C5.50168 5.30465 5.53221 5.25378 5.55565 5.19959C5.5695 5.17534 5.57677 5.14792 5.57677 5.12002C5.57677 5.09212 5.5695 5.0647 5.55565 5.04044C5.53394 4.99525 5.35826 4.54924 5.27536 4.36651C5.19245 4.18378 5.12534 4.21325 5.07797 4.20932H4.90426C4.85809 4.21066 4.8127 4.22147 4.77092 4.24108C4.72914 4.26069 4.69188 4.28868 4.66147 4.32328C4.5559 4.41909 4.4718 4.53598 4.41466 4.66633C4.35752 4.79667 4.32862 4.93753 4.32985 5.07974C4.36023 5.42241 4.48906 5.74913 4.70095 6.02089C4.74635 6.07983 5.34445 7.0033 6.25837 7.39627C6.4755 7.49058 6.65315 7.54559 6.77751 7.59275C6.96378 7.64789 7.16024 7.65998 7.35192 7.62812C7.5276 7.60257 7.89277 7.40806 7.96975 7.19586C8.03039 7.06027 8.04895 6.90975 8.02305 6.76359C8.00133 6.72233 7.94014 6.70268 7.84737 6.65356L7.84342 6.64374ZM8.76327 3.31729C8.13758 2.69282 7.30504 2.31623 6.42094 2.25778C5.53685 2.19932 4.66158 2.463 3.95841 2.99961C3.25524 3.53622 2.7722 4.30913 2.59938 5.17415C2.42656 6.03917 2.57577 6.93724 3.01917 7.70082L2.50003 9.58312L4.43447 9.07816C4.97008 9.36779 5.56986 9.51975 6.17941 9.52024C6.90176 9.52107 7.6081 9.30852 8.20901 8.9095C8.80993 8.51048 9.27837 7.94295 9.55504 7.27876C9.83171 6.61457 9.90416 5.8836 9.76321 5.1784C9.62226 4.4732 9.27426 3.8255 8.76327 3.31729ZM6.17941 8.90722C5.63562 8.90784 5.10171 8.76259 4.63384 8.48675L4.52724 8.41994L3.37448 8.72056L3.68044 7.6065L3.60937 7.49254C3.30435 7.01161 3.14344 6.45407 3.1455 5.88532C3.14589 5.28811 3.32416 4.70443 3.65777 4.20807C3.99138 3.7117 4.46534 3.32493 5.01975 3.09666C5.57416 2.86839 6.18412 2.80887 6.77251 2.92561C7.3609 3.04236 7.9013 3.33013 8.3254 3.75256C8.74951 4.17498 9.03826 4.71309 9.15517 5.29884C9.27207 5.8846 9.21187 6.49171 8.98219 7.04342C8.7525 7.59512 8.36364 8.06666 7.86475 8.3984C7.36587 8.73015 6.77938 8.90722 6.17941 8.90722Z" fill="white"/>
</g>
</svg>
