<svg preserveAspectRatio="none" width="100%" height="100%" overflow="visible" style="display: block;" viewBox="0 0 34 34" fill="none" xmlns="http://www.w3.org/2000/svg">
<g id="alaexa" clip-path="url(#clip0_40001324_93484)">
<path id="Vector" fill-rule="evenodd" clip-rule="evenodd" d="M16.9982 0.176408C7.71191 0.176408 0.183655 7.70803 0.183655 16.9993C0.183655 25.5294 6.5301 32.5765 14.7565 33.6734V30.2835C14.7565 29.328 14.1542 28.4683 13.2483 28.1647C8.50175 26.569 5.10604 22.0302 5.23137 16.7159C5.38362 10.2458 10.6517 5.15852 17.1193 5.22412C23.5641 5.28973 28.7683 10.5368 28.7683 17.0002C28.7683 17.6058 28.7212 18.2114 28.6304 18.8095C27.1895 28.3068 14.8255 33.6448 14.7582 33.6742C15.4908 33.7709 16.2386 33.8222 16.9982 33.8222C26.2844 33.8222 33.8127 26.2906 33.8127 16.9993C33.8127 7.70803 26.2844 0.176408 16.9982 0.176408Z" fill="var(--fill-0, #29B6F6)"/>
</g>
<defs>
<clipPath id="clip0_40001324_93484">
<rect width="34" height="34" fill="white"/>
</clipPath>
</defs>
</svg>
