<svg viewBox="0 0 36 28" fill="none" xmlns="http://www.w3.org/2000/svg">
<g id="gmail" clip-path="url(#clip0_40001324_93466)">
<path id="Vector" d="M35.4986 7.50143L31.3319 9.7931L27.1653 13.7514V27.3348H32.9986C34.3794 27.3348 35.4986 26.2156 35.4986 24.8348V7.50143Z" fill="var(--fill-0, #4CAF50)"/>
<path id="Vector_2" d="M0.500183 7.50143L3.51185 8.92643L8.83352 13.7514V27.3348H3.00018C1.61935 27.3348 0.500183 26.2156 0.500183 24.8348V7.50143Z" fill="var(--fill-0, #1E88E5)"/>
<path id="Vector_3" d="M27.1669 3.33334L18.0002 10.2083L8.83358 3.33334L8.00024 8.16668L8.83358 13.75L18.0002 20.625L27.1669 13.75L28.0002 8.16668L27.1669 3.33334Z" fill="var(--fill-0, #E53935)"/>
<path id="Vector_4" d="M0.500183 4.24915V7.50081L8.83352 13.7508V3.33415L6.23018 1.38331C5.61018 0.918314 4.85685 0.66748 4.08185 0.66748C2.10352 0.66748 0.500183 2.27081 0.500183 4.24915Z" fill="var(--fill-0, #C62828)"/>
<path id="Vector_5" d="M35.4986 4.24915V7.50081L27.1653 13.7508V3.33415L29.7686 1.38331C30.3886 0.918314 31.1419 0.66748 31.9169 0.66748C33.8953 0.66748 35.4986 2.27081 35.4986 4.24915Z" fill="var(--fill-0, #FBC02D)"/>
</g>
<defs>
<clipPath id="clip0_40001324_93466">
<rect width="36" height="28" fill="white"/>
</clipPath>
</defs>
</svg>
