<svg preserveAspectRatio="none" width="100%" height="100%" overflow="visible" style="display: block;" viewBox="0 0 34 34" fill="none" xmlns="http://www.w3.org/2000/svg">
<g id="google-calendar" clip-path="url(#clip0_40001324_93473)">
<path id="Vector" d="M26.8938 7.10519H7.10547V26.8936H26.8938V7.10519Z" fill="var(--fill-0, white)"/>
<path id="Vector_2" d="M18.5085 14.2321L19.4152 15.5273L20.8399 14.4912V22.0035H22.3942V12.1597H21.099L18.5085 14.2321Z" fill="var(--fill-0, #1E88E5)"/>
<path id="Vector_3" d="M16.0512 16.7709C16.6134 16.2546 16.9624 15.5387 16.9624 14.748C16.9624 13.1766 15.5835 11.8985 13.8889 11.8985C12.448 11.8985 11.2157 12.8061 10.8937 14.1049L12.3841 14.4836C12.5325 13.8863 13.1648 13.4528 13.8889 13.4528C14.7362 13.4528 15.4261 14.0338 15.4261 14.748C15.4261 15.4622 14.7362 16.0433 13.8889 16.0433H12.9921V17.5975H13.8889C14.8612 17.5975 15.6816 18.2731 15.6816 19.0727C15.6816 19.8858 14.9026 20.5478 13.9447 20.5478C13.0794 20.5478 12.34 19.9991 12.2231 19.2724L10.7057 19.5206C10.9413 20.9922 12.3337 22.1021 13.9438 22.1021C15.749 22.1021 17.2179 20.743 17.2179 19.0727C17.2179 18.1525 16.7645 17.3268 16.0512 16.7709Z" fill="var(--fill-0, #1E88E5)"/>
<path id="Vector_4" d="M25.9944 33.1887H8.00494L7.10547 29.5908L8.00494 25.9929H25.9944L26.8938 29.5908L25.9944 33.1887Z" fill="var(--fill-0, #FBC02D)"/>
<path id="Vector_5" d="M29.5911 26.8936L33.189 25.9941V8.00467L29.5911 7.10519L25.9932 8.00467V25.9941L29.5911 26.8936Z" fill="var(--fill-0, #4CAF50)"/>
<path id="Vector_6" d="M25.9916 8.00395L26.891 4.40607L25.9916 0.808182H3.50478C2.01436 0.808182 0.806366 2.01617 0.806366 3.50659V25.9934L4.40425 26.8928L8.00213 25.9934V8.00395H25.9916Z" fill="var(--fill-0, #1E88E5)"/>
<path id="Vector_7" d="M25.9932 25.9929V33.1887L33.189 25.9929H25.9932Z" fill="var(--fill-0, #E53935)"/>
<path id="Vector_8" d="M30.4905 0.808182H25.9932V8.00395H33.189V3.50659C33.189 2.01617 31.981 0.808182 30.4905 0.808182Z" fill="var(--fill-0, #1565C0)"/>
<path id="Vector_9" d="M3.50478 33.1887H8.00213V25.9929H0.806366V30.4903C0.806366 31.9807 2.01436 33.1887 3.50478 33.1887Z" fill="var(--fill-0, #1565C0)"/>
</g>
<defs>
<clipPath id="clip0_40001324_93473">
<rect width="34" height="34" fill="white"/>
</clipPath>
</defs>
</svg>
