<svg viewBox="0 0 35 33" fill="none" xmlns="http://www.w3.org/2000/svg">
<g id="microsoftOutlook" clip-path="url(#clip0_40001324_93449)">
<path id="Vector" d="M24.8054 3.04226L3.66202 16.3891L1.84373 13.5323V11.0706C1.84373 10.1744 2.29944 9.33912 3.05449 8.85136L15.3451 0.908986C17.2176 -0.301085 19.6295 -0.301324 21.5022 0.908508L24.8054 3.04226Z" fill="url(#paint0_linear_40001324_93449)"/>
<path id="Vector_2" d="M21.3123 0.790087C21.3758 0.827588 21.4389 0.866761 21.5015 0.907129L31.0933 7.10343L7.31036 22.1166L3.66082 16.3827L21.1154 5.34326C22.7686 4.29753 22.8411 1.94522 21.3123 0.790087Z" fill="url(#paint1_linear_40001324_93449)"/>
<path id="Vector_3" d="M21.3123 0.790087C21.3758 0.827588 21.4389 0.866761 21.5015 0.907129L31.0933 7.10343L7.31036 22.1166L3.66082 16.3827L21.1154 5.34326C22.7686 4.29753 22.8411 1.94522 21.3123 0.790087Z" fill="url(#paint2_linear_40001324_93449)"/>
<path id="Vector_4" d="M16.7996 24.9836L7.31089 22.117L27.4851 9.3814C29.1842 8.30891 29.1798 5.83861 27.4769 4.7721L27.386 4.71525L27.6477 4.87719L33.7876 8.84372C34.5429 9.33148 34.9986 10.167 34.9986 11.0635V13.4459L16.7996 24.9836Z" fill="url(#paint3_linear_40001324_93449)"/>
<path id="Vector_5" d="M16.7996 24.9836L7.31089 22.117L27.4851 9.3814C29.1842 8.30891 29.1798 5.83861 27.4769 4.7721L27.386 4.71525L27.6477 4.87719L33.7876 8.84372C34.5429 9.33148 34.9986 10.167 34.9986 11.0635V13.4459L16.7996 24.9836Z" fill="url(#paint4_linear_40001324_93449)"/>
<path id="Vector_6" d="M21.5022 0.908508C19.6295 -0.301324 17.2176 -0.301085 15.3448 0.908986L3.05449 8.85136C2.29944 9.33912 1.84373 10.1744 1.84373 11.0706V11.191C1.87347 12.0908 2.34885 12.9199 3.11685 13.4021L18.3988 22.997L33.7194 13.4167C34.5152 12.9192 34.9981 12.0492 34.9981 11.1136V13.4475L34.9985 11.0649C34.9985 10.1684 34.5426 9.33314 33.7875 8.84515L21.5022 0.908508Z" fill="url(#paint5_radial_40001324_93449)"/>
<path id="Vector_7" d="M15.7048 32.9989H29.2407C32.4199 32.9989 34.9971 30.4324 34.9971 27.2663V11.1133C34.9971 12.0489 34.5142 12.9188 33.7187 13.4164L13.5848 26.0063C12.4987 26.6856 11.8396 27.873 11.8396 29.1502C11.8399 31.2758 13.5701 32.9989 15.7048 32.9989Z" fill="url(#paint6_linear_40001324_93449)"/>
<path id="Vector_8" d="M15.7048 32.9989H29.2407C32.4199 32.9989 34.9971 30.4324 34.9971 27.2663V11.1133C34.9971 12.0489 34.5142 12.9188 33.7187 13.4164L13.5848 26.0063C12.4987 26.6856 11.8396 27.873 11.8396 29.1502C11.8399 31.2758 13.5701 32.9989 15.7048 32.9989Z" fill="url(#paint7_radial_40001324_93449)"/>
<path id="Vector_9" d="M15.7048 32.9989H29.2407C32.4199 32.9989 34.9971 30.4324 34.9971 27.2663V11.1133C34.9971 12.0489 34.5142 12.9188 33.7187 13.4164L13.5848 26.0063C12.4987 26.6856 11.8396 27.873 11.8396 29.1502C11.8399 31.2758 13.5701 32.9989 15.7048 32.9989Z" fill="url(#paint8_radial_40001324_93449)"/>
<path id="Vector_10" d="M21.2082 32.997H7.59774C4.41854 32.997 1.84137 30.4305 1.84137 27.2644V11.1004C1.84137 12.0343 2.3225 12.9028 3.11568 13.4009L23.2297 26.0292C24.3308 26.7205 24.9986 27.9265 24.9986 29.2228C24.9983 31.3073 23.3014 32.997 21.2082 32.997Z" fill="url(#paint9_radial_40001324_93449)"/>
<path id="Vector_11" d="M21.2082 32.997H7.59774C4.41854 32.997 1.84137 30.4305 1.84137 27.2644V11.1004C1.84137 12.0343 2.3225 12.9028 3.11568 13.4009L23.2297 26.0292C24.3308 26.7205 24.9986 27.9265 24.9986 29.2228C24.9983 31.3073 23.3014 32.997 21.2082 32.997Z" fill="url(#paint10_linear_40001324_93449)"/>
<path id="Vector_12" d="M2.99328 15.5672H11.743C13.3963 15.5672 14.7363 16.9017 14.7363 18.5482V27.2618C14.7363 28.9083 13.3963 30.2428 11.743 30.2428H2.99328C1.34 30.2428 -3.23671e-05 28.9083 -3.23671e-05 27.2618V18.5482C-3.23671e-05 16.9017 1.34 15.5672 2.99328 15.5672Z" fill="url(#paint11_radial_40001324_93449)"/>
<path id="Vector_13" d="M2.99328 15.5672H11.743C13.3963 15.5672 14.7363 16.9017 14.7363 18.5482V27.2618C14.7363 28.9083 13.3963 30.2428 11.743 30.2428H2.99328C1.34 30.2428 -3.23671e-05 28.9083 -3.23671e-05 27.2618V18.5482C-3.23671e-05 16.9017 1.34 15.5672 2.99328 15.5672Z" fill="url(#paint12_radial_40001324_93449)"/>
<path id="Vector_14" d="M7.33071 27.1257C6.11204 27.1257 5.11187 26.7459 4.32972 25.9868C3.54757 25.2277 3.15638 24.2369 3.15638 23.0147C3.15638 21.7239 3.55333 20.68 4.34723 19.8827C5.14137 19.0856 6.18087 18.6872 7.46623 18.6872C8.68082 18.6872 9.66924 19.0687 10.4317 19.8316C11.1983 20.5945 11.5816 21.6006 11.5816 22.8494C11.5816 24.1325 11.1844 25.1668 10.3905 25.9527C9.6004 26.7347 8.58056 27.1257 7.33071 27.1257ZM7.36597 25.5143C8.03011 25.5143 8.56473 25.2884 8.9696 24.8367C9.37446 24.385 9.5769 23.7566 9.5769 22.9518C9.5769 22.113 9.38022 21.4602 8.98735 20.9932C8.59424 20.5262 8.06945 20.2928 7.41322 20.2928C6.73708 20.2928 6.19263 20.5339 5.78009 21.0159C5.36731 21.4943 5.16104 22.1282 5.16104 22.9177C5.16104 23.7188 5.36731 24.3528 5.78009 24.8195C6.19263 25.2827 6.72125 25.5143 7.36597 25.5143Z" fill="var(--fill-0, white)"/>
<path id="Vector_15" d="M7.32695 27.2379C6.11308 27.2379 5.1165 26.8481 4.33723 26.0682C3.55821 25.2883 3.16845 24.2705 3.16845 23.0151C3.16845 21.6891 3.56396 20.6169 4.35498 19.7981C5.14601 18.979 6.18167 18.5696 7.46199 18.5696C8.67179 18.5696 9.65661 18.9616 10.4162 19.7453C11.1799 20.5292 11.5615 21.5625 11.5615 22.8455C11.5615 24.1633 11.166 25.226 10.3752 26.0331C9.58801 26.8364 8.57201 27.2379 7.32695 27.2379ZM7.36197 25.5828C8.02371 25.5828 8.55642 25.3506 8.95961 24.8868C9.36303 24.4227 9.5645 23.7773 9.5645 22.9506C9.5645 22.0888 9.36879 21.4183 8.97735 20.9386C8.58568 20.459 8.06305 20.2192 7.40922 20.2192C6.73549 20.2192 6.19319 20.4667 5.78209 20.962C5.37098 21.4531 5.16543 22.1045 5.16543 22.9155C5.16543 23.7383 5.37098 24.3895 5.78209 24.8691C6.19319 25.3449 6.7199 25.5828 7.36197 25.5828Z" fill="var(--fill-0, white)"/>
</g>
<defs>
<linearGradient id="paint0_linear_40001324_93449" x1="5.51631" y1="14.9863" x2="24.761" y2="3.00044" gradientUnits="userSpaceOnUse">
<stop stop-color="#20A7FA"/>
<stop offset="0.4" stop-color="#3BD5FF"/>
<stop offset="1" stop-color="#C4B0FF"/>
</linearGradient>
<linearGradient id="paint1_linear_40001324_93449" x1="12.1547" y1="19.0477" x2="22.8292" y2="1.88459" gradientUnits="userSpaceOnUse">
<stop stop-color="#165AD9"/>
<stop offset="0.5008" stop-color="#1880E5"/>
<stop offset="1" stop-color="#8587FF"/>
</linearGradient>
<linearGradient id="paint2_linear_40001324_93449" x1="19.9864" y1="19.2805" x2="8.10379" y2="9.55843" gradientUnits="userSpaceOnUse">
<stop offset="0.236946" stop-color="#448AFF" stop-opacity="0"/>
<stop offset="0.792113" stop-color="#0032B1" stop-opacity="0.2"/>
</linearGradient>
<linearGradient id="paint3_linear_40001324_93449" x1="18.4696" y1="23.006" x2="37.2653" y2="10.9271" gradientUnits="userSpaceOnUse">
<stop stop-color="#1A43A6"/>
<stop offset="0.492267" stop-color="#2052CB"/>
<stop offset="1" stop-color="#5F20CB"/>
</linearGradient>
<linearGradient id="paint4_linear_40001324_93449" x1="23.7883" y1="22.2882" x2="12.3799" y2="12.3755" gradientUnits="userSpaceOnUse">
<stop stop-color="#0045B9" stop-opacity="0"/>
<stop offset="0.669859" stop-color="#0D1F69" stop-opacity="0.2"/>
</linearGradient>
<radialGradient id="paint5_radial_40001324_93449" cx="0" cy="0" r="1" gradientUnits="userSpaceOnUse" gradientTransform="translate(18.4223 0.726176) rotate(-90) scale(24.7676 26.9179)">
<stop offset="0.568182" stop-color="#275FF0" stop-opacity="0"/>
<stop offset="0.992424" stop-color="#002177"/>
</radialGradient>
<linearGradient id="paint6_linear_40001324_93449" x1="34.9971" y1="21.9369" x2="18.284" y2="21.9369" gradientUnits="userSpaceOnUse">
<stop stop-color="#4DC4FF"/>
<stop offset="0.196145" stop-color="#0FAFFF"/>
</linearGradient>
<radialGradient id="paint7_radial_40001324_93449" cx="0" cy="0" r="1" gradientTransform="matrix(7.53638 -7.50534 7.53638 7.50534 22.1902 29.2459)" gradientUnits="userSpaceOnUse">
<stop offset="0.259477" stop-color="#0060D1" stop-opacity="0.4"/>
<stop offset="0.908166" stop-color="#0383F1" stop-opacity="0"/>
</radialGradient>
<radialGradient id="paint8_radial_40001324_93449" cx="0" cy="0" r="1" gradientTransform="matrix(21.9453 -28.6448 26.0093 19.7624 6.10786 37.0977)" gradientUnits="userSpaceOnUse">
<stop offset="0.732317" stop-color="#F4A7F7" stop-opacity="0"/>
<stop offset="1" stop-color="#F4A7F7" stop-opacity="0.501961"/>
</radialGradient>
<radialGradient id="paint9_radial_40001324_93449" cx="0" cy="0" r="1" gradientTransform="matrix(-10.4911 15.8818 -41.3856 -27.1135 13.42 19.7244)" gradientUnits="userSpaceOnUse">
<stop stop-color="#49DEFF"/>
<stop offset="0.724349" stop-color="#29C3FF"/>
</radialGradient>
<linearGradient id="paint10_linear_40001324_93449" x1="-0.499553" y1="29.2089" x2="15.5921" y2="29.1972" gradientUnits="userSpaceOnUse">
<stop offset="0.205882" stop-color="#6CE0FF"/>
<stop offset="0.535" stop-color="#50D5FF" stop-opacity="0"/>
</linearGradient>
<radialGradient id="paint11_radial_40001324_93449" cx="0" cy="0" r="1" gradientTransform="matrix(13.2484 14.1112 -14.1695 13.1938 -0.0526135 16.1316)" gradientUnits="userSpaceOnUse">
<stop offset="0.038877" stop-color="#0091FF"/>
<stop offset="0.919119" stop-color="#183DAD"/>
</radialGradient>
<radialGradient id="paint12_radial_40001324_93449" cx="0" cy="0" r="1" gradientUnits="userSpaceOnUse" gradientTransform="translate(7.36813 24.5045) rotate(90) scale(10.2729 11.8985)">
<stop offset="0.557796" stop-color="#0FA5F7" stop-opacity="0"/>
<stop offset="1" stop-color="#74C6FF" stop-opacity="0.501961"/>
</radialGradient>
<clipPath id="clip0_40001324_93449">
<rect width="35" height="33" fill="white"/>
</clipPath>
</defs>
</svg>
