<svg preserveAspectRatio="none" width="100%" height="100%" overflow="visible" style="display: block;" viewBox="0 0 35 35" fill="none" xmlns="http://www.w3.org/2000/svg">
<g id="whatsapp">
<rect width="35" height="35" rx="17.5" fill="var(--fill-0, #25D366)"/>
<path id="Vector" d="M22.8766 19.3776C22.6061 19.2458 21.2992 18.6097 21.0574 18.518C20.8155 18.4263 20.6428 18.3862 20.4816 18.6498C20.3204 18.9134 19.7677 19.5323 19.618 19.687C19.4684 19.8418 19.3072 19.8876 19.0423 19.7558C18.2588 19.44 17.5346 18.9943 16.9006 18.4377C16.32 17.9018 15.8214 17.2839 15.421 16.6039C15.2598 16.3403 15.421 16.197 15.5419 16.0709C15.6628 15.9449 15.8067 15.7615 15.9392 15.6067C16.0466 15.4719 16.1356 15.3235 16.204 15.1655C16.2444 15.0947 16.2656 15.0148 16.2656 14.9334C16.2656 14.852 16.2444 14.772 16.204 14.7013C16.1407 14.5695 15.6283 13.2686 15.3865 12.7356C15.1447 12.2027 14.9489 12.2886 14.8107 12.2772H14.3041C14.1694 12.2811 14.037 12.3126 13.9152 12.3698C13.7933 12.427 13.6847 12.5086 13.596 12.6096C13.288 12.889 13.0427 13.23 12.8761 13.6101C12.7094 13.9903 12.6251 14.4011 12.6287 14.8159C12.7173 15.8154 13.0931 16.7683 13.7111 17.5609C13.8435 17.7329 15.588 20.4263 18.2536 21.5724C18.8869 21.8475 19.405 22.008 19.7677 22.1455C20.311 22.3063 20.884 22.3416 21.4431 22.2487C21.9555 22.1742 23.0206 21.6068 23.2451 20.9879C23.422 20.5925 23.4761 20.1534 23.4006 19.7271C23.3372 19.6068 23.1588 19.5495 22.8882 19.4062L22.8766 19.3776ZM25.5595 9.67543C23.7346 7.85405 21.3064 6.75567 18.7277 6.58518C16.1491 6.41469 13.5963 7.18374 11.5454 8.74886C9.49446 10.314 8.08557 12.5683 7.58151 15.0913C7.07745 17.6143 7.51265 20.2336 8.80592 22.4607L7.29177 27.9508L12.9339 26.478C14.4961 27.3227 16.2454 27.7659 18.0233 27.7674C20.1301 27.7698 22.1903 27.1498 23.943 25.986C25.6956 24.8222 27.0619 23.1669 27.8689 21.2297C28.6758 19.2925 28.8871 17.1605 28.476 15.1037C28.0649 13.0468 27.0499 11.1577 25.5595 9.67543ZM18.0233 25.9794C16.4372 25.9812 14.88 25.5576 13.5154 24.753L13.2045 24.5582L9.84223 25.435L10.7346 22.1856L10.5273 21.8533C9.63769 20.4505 9.16835 18.8244 9.17439 17.1655C9.17553 15.4237 9.69547 13.7213 10.6685 12.2735C11.6415 10.8258 13.0239 9.69772 14.6409 9.03193C16.258 8.36614 18.037 8.19252 19.7531 8.53304C21.4693 8.87355 23.0455 9.71289 24.2824 10.945C25.5194 12.177 26.3616 13.7465 26.7026 15.455C27.0435 17.1634 26.868 18.9341 26.198 20.5433C25.5281 22.1524 24.3939 23.5277 22.9389 24.4953C21.4838 25.4629 19.7732 25.9794 18.0233 25.9794Z" fill="var(--fill-0, white)"/>
</g>
</svg>
