<svg width="256" height="262" viewBox="0 0 256 262" fill="none" xmlns="http://www.w3.org/2000/svg">
<g filter="url(#filter0_d_40000629_4712)">
<mask id="path-1-inside-1_40000629_4712" fill="white">
<path d="M0 128C0 88.2397 0 68.3595 6.49561 52.6777C15.1564 31.7686 31.7686 15.1564 52.6777 6.49561C68.3595 0 88.2397 0 128 0V0C167.76 0 187.641 0 203.322 6.49561C224.231 15.1564 240.844 31.7686 249.504 52.6777C256 68.3595 256 88.2397 256 128V128C256 167.76 256 187.641 249.504 203.322C240.844 224.231 224.231 240.844 203.322 249.504C187.641 256 167.76 256 128 256V256C88.2397 256 68.3595 256 52.6777 249.504C31.7686 240.844 15.1564 224.231 6.49561 203.322C0 187.641 0 167.76 0 128V128Z"/>
</mask>
<path d="M0 128C0 88.2397 0 68.3595 6.49561 52.6777C15.1564 31.7686 31.7686 15.1564 52.6777 6.49561C68.3595 0 88.2397 0 128 0V0C167.76 0 187.641 0 203.322 6.49561C224.231 15.1564 240.844 31.7686 249.504 52.6777C256 68.3595 256 88.2397 256 128V128C256 167.76 256 187.641 249.504 203.322C240.844 224.231 224.231 240.844 203.322 249.504C187.641 256 167.76 256 128 256V256C88.2397 256 68.3595 256 52.6777 249.504C31.7686 240.844 15.1564 224.231 6.49561 203.322C0 187.641 0 167.76 0 128V128Z" fill="#6137F3" shape-rendering="crispEdges"/>
<path d="M0 0H256H0M256 170.667C256 223.686 213.019 266.667 160 266.667H96C42.9807 266.667 0 223.686 0 170.667V170.667C0 211.904 38.205 245.333 85.3333 245.333H170.667C217.795 245.333 256 211.904 256 170.667V170.667ZM256 170.667M0 256V0V256M0 256M256 0V256V0" fill="#09090B" fill-opacity="0.3" mask="url(#path-1-inside-1_40000629_4712)"/>
<path d="M120.428 84.3624C125.39 75.8689 129.77 67.0187 136.142 59.3829C139.824 54.9729 143.832 50.8894 149.607 49.0905C158.25 46.4036 164.994 51.0184 165.18 59.8535C165.382 69.1591 161.831 77.5691 158.343 85.9639C157.087 88.9772 155.762 91.9602 154.467 94.9583C152.614 97.7591 150.963 100.666 149.475 104.203C153.126 102.048 155.297 99.2848 157.428 96.4764C162.273 91.9678 166.692 86.9582 172.754 83.8918C174.343 83.0872 176.017 82.3661 177.738 81.8803C185.134 79.7854 191.025 84.37 190.614 91.9147C190.327 97.1823 188.39 102.025 186.103 106.708C183.948 111.126 181.514 115.414 179.203 119.756C176.227 123.209 174.149 127.187 172.002 131.156C174.165 129.919 176.32 128.841 177.684 126.822C181.824 123.839 185.707 120.492 190.622 118.67C197.537 116.105 202.413 119.262 202.645 126.541C203.025 138.352 198.304 148.788 192.839 158.815C181.064 180.394 164.94 197.943 141.475 207.636C117.708 217.45 94.2891 216.281 72.3512 202.497C51.4675 189.373 47.0489 159.141 62.7621 140.91C77.4287 123.9 113.529 121.023 127.242 143.938C129.614 147.908 131.498 152.083 131.188 156.804C131.041 159.012 131.987 160.401 133.723 161.487C136.149 163.005 138.056 165.092 139.894 167.195C142.351 170.003 142.134 173.305 139.599 175.627C137.188 177.836 133.095 178.087 130.894 175.453C128.165 172.181 126.855 173.366 124.56 175.923C117.033 184.333 101.336 186.58 91.3976 180.986C84.3511 177.016 80.3356 169.312 81.824 162.625C83.3046 155.954 90.2813 150.663 98.7464 149.76C103.909 149.206 109.018 149.722 114.064 150.716C114.925 150.883 115.808 151.62 116.405 150.663C117.049 149.631 116.149 148.826 115.529 147.999C111.351 142.375 105.514 139.809 98.6456 139.376C81.669 138.306 68.2349 148.439 67.3744 164.743C66.6458 178.626 75.5604 191.711 90.0488 196.516C110.816 203.408 130.359 200 148.258 188.136C167.351 175.483 180.63 158.056 189.591 137.395C190.273 135.832 191.824 133.524 190.467 132.522C188.769 131.262 187.072 133.524 185.645 134.625C180.196 138.853 175.072 143.49 169.242 147.225C167.204 148.53 165.017 149.676 162.762 150.572C159.715 151.779 156.366 152.606 153.638 150.124C150.971 147.695 151.925 144.5 152.862 141.6C155.514 133.448 160.428 126.45 164.986 119.277C168.793 113.289 172.653 107.33 176.312 101.258C177.545 99.2165 180.25 96.1956 178.01 94.6547C175.63 93.0228 173.436 96.4157 171.684 98.2677C164.072 106.313 157.514 115.27 149.366 122.852C146.746 125.297 143.971 127.558 140.723 129.137C138.095 130.412 135.219 131.088 132.614 129.365C130.064 127.68 130.002 124.902 130.312 122.162C131.304 113.494 135.103 105.729 138.514 97.8426C142.886 87.74 148.328 78.0928 152.08 67.7245C152.777 65.789 154.289 63.2387 152.072 61.8421C149.607 60.2937 148.134 63.0869 146.855 64.5822C141.607 70.7151 138.258 78.0169 134.32 84.9544C129.002 94.3132 124.413 104.097 117.436 112.477C116.219 113.934 114.839 115.277 113.398 116.522C111.421 118.23 109.18 119.74 106.413 118.503C103.839 117.357 103.452 114.83 103.266 112.408C102.793 106.329 103.212 100.294 104.367 94.298C106.452 83.5123 108.576 72.7265 110.599 61.9256C110.979 59.9142 112.266 56.9464 109.987 56.1039C107.832 55.2993 106.491 58.3202 105.429 60.0204C100.274 68.2559 97.0487 77.3262 94.1573 86.4952C91.4209 95.1785 89.2271 103.998 87.8007 112.993C87.072 117.577 83.824 120.037 79.4519 119.475C75.4364 118.959 73.0488 115.824 73.9015 111.103C76.2814 97.9034 80.3511 85.1593 85.7154 72.8328C89.4596 64.2254 93.5992 55.8306 100.274 48.9083C102.243 46.8666 104.374 45.0601 106.878 43.7318C112.638 40.6805 116.343 41.4471 120.366 46.4036C120.909 48.6806 121.452 50.9577 121.987 53.2348C122.328 62.7605 120.491 72.0586 118.87 81.3794C117.584 84.2333 117.312 87.2846 116.762 90.723C118.855 88.7419 119.142 86.2751 120.39 84.332L120.428 84.3624ZM106.754 161.548C102.467 161.578 99.4828 161.426 96.8394 163.179C94.1108 164.994 93.7852 168.159 96.1573 170.162C101.188 174.413 113.715 172.394 117.087 166.838C117.909 165.487 117.917 164.644 116.289 163.916C112.832 162.367 109.25 161.456 106.754 161.548Z" fill="white"/>
</g>
<defs>
<filter id="filter0_d_40000629_4712" x="0" y="0" width="256" height="261.333" filterUnits="userSpaceOnUse" color-interpolation-filters="sRGB">
<feFlood flood-opacity="0" result="BackgroundImageFix"/>
<feColorMatrix in="SourceAlpha" type="matrix" values="0 0 0 0 0 0 0 0 0 0 0 0 0 0 0 0 0 0 127 0" result="hardAlpha"/>
<feOffset dy="5.33333"/>
<feComposite in2="hardAlpha" operator="out"/>
<feColorMatrix type="matrix" values="0 0 0 0 0.0941176 0 0 0 0 0.0941176 0 0 0 0 0.105882 0 0 0 0.15 0"/>
<feBlend mode="normal" in2="BackgroundImageFix" result="effect1_dropShadow_40000629_4712"/>
<feBlend mode="normal" in="SourceGraphic" in2="effect1_dropShadow_40000629_4712" result="shape"/>
</filter>
</defs>
</svg>
