<svg preserveAspectRatio="none" width="100%" height="100%" overflow="visible" style="display: block;" viewBox="0 0 28 32.2778" fill="none" xmlns="http://www.w3.org/2000/svg">
<g id="Fake Business Logos">
<path id="Vector" d="M12.5803 7.95684C13.5106 6.36431 14.3318 4.70489 15.5266 3.27318C16.217 2.44632 16.9684 1.68065 18.0512 1.34336C19.6719 0.839559 20.9364 1.70485 20.9713 3.36142C21.0091 5.10622 20.3434 6.6831 19.6893 8.25712C19.4539 8.82212 19.2053 9.38143 18.9626 9.94358C18.6152 10.4687 18.3056 11.0138 18.0265 11.677C18.7111 11.2728 19.1181 10.7548 19.5178 10.2282C20.4262 9.38285 21.2547 8.44356 22.3913 7.8686C22.6893 7.71774 23.0033 7.58254 23.3259 7.49146C24.7126 7.09866 25.8172 7.95826 25.7402 9.37289C25.6864 10.3606 25.323 11.2686 24.8943 12.1467C24.4902 12.9749 24.0338 13.779 23.6006 14.5931C23.0425 15.2406 22.653 15.9864 22.2504 16.7307C22.6559 16.4987 23.06 16.2966 23.3158 15.9181C24.0919 15.3587 24.8201 14.7311 25.7416 14.3896C27.0381 13.9085 27.9524 14.5006 27.996 15.8654C28.0672 18.0798 27.182 20.0367 26.1573 21.9167C23.9495 25.9628 20.9262 29.2532 16.5265 31.0706C12.0702 32.9107 7.6792 32.6915 3.56584 30.1071C-0.349842 27.6464 -1.17833 21.9779 1.76788 18.5595C4.51787 15.3701 11.2867 14.8308 13.8579 19.1273C14.3027 19.8716 14.6559 20.6544 14.5978 21.5396C14.5702 21.9537 14.7475 22.2142 15.0731 22.4177C15.528 22.7023 15.8856 23.0937 16.23 23.4879C16.6908 24.0145 16.6501 24.6335 16.1748 25.069C15.7228 25.4832 14.9553 25.5301 14.5425 25.0363C14.0309 24.4229 13.7853 24.6449 13.355 25.1245C11.9437 26.7014 9.00041 27.1227 7.13705 26.0738C5.81583 25.3295 5.06293 23.885 5.342 22.6312C5.61961 21.3802 6.92775 20.3882 8.51495 20.2189C9.48297 20.115 10.4408 20.2118 11.387 20.3982C11.5484 20.4295 11.7141 20.5676 11.826 20.3882C11.9466 20.1947 11.778 20.0438 11.6617 19.8887C10.8783 18.8341 9.78384 18.3531 8.49606 18.272C5.31293 18.0713 2.79404 19.9712 2.6327 23.0282C2.49608 25.6312 4.16758 28.0847 6.88414 28.9856C10.778 30.2778 14.4423 29.6388 17.7983 27.4144C21.3783 25.042 23.8681 21.7744 25.5483 17.9005C25.6762 17.6074 25.9669 17.1747 25.7126 16.9869C25.3942 16.7506 25.0759 17.1747 24.8085 17.3811C23.7867 18.1738 22.8259 19.0433 21.7329 19.7435C21.3507 19.9883 20.9408 20.2032 20.5178 20.3712C19.9466 20.5974 19.3187 20.7526 18.8071 20.2872C18.3071 19.8318 18.4858 19.2326 18.6617 18.689C19.1588 17.1605 20.0803 15.8483 20.935 14.5034C21.6486 13.3805 22.3725 12.2634 23.0585 11.1248C23.2896 10.742 23.7969 10.1756 23.3768 9.88666C22.9306 9.58067 22.5193 10.2168 22.1908 10.5641C20.7634 12.0726 19.5338 13.752 18.0062 15.1737C17.5149 15.632 16.9946 16.0561 16.3856 16.3521C15.8928 16.5912 15.3536 16.7179 14.8652 16.3948C14.387 16.0789 14.3754 15.558 14.4335 15.0442C14.6196 13.419 15.3318 11.9631 15.9713 10.4844C16.7911 8.59015 17.8114 6.7813 18.5149 4.83725C18.6457 4.47434 18.9292 3.99615 18.5135 3.73429C18.0512 3.44396 17.7751 3.96769 17.5353 4.24805C16.5513 5.39797 15.9234 6.76707 15.185 8.06784C14.1879 9.82261 13.3274 11.6571 12.0193 13.2283C11.7911 13.5015 11.5324 13.7534 11.262 13.9868C10.8914 14.307 10.4713 14.5902 9.95245 14.3583C9.46989 14.1434 9.39721 13.6694 9.36233 13.2155C9.27367 12.0755 9.35215 10.9441 9.56872 9.81977C9.95971 7.79744 10.358 5.77511 10.7373 3.74994C10.8085 3.3728 11.0498 2.81634 10.6225 2.65837C10.2184 2.50752 9.96698 3.07394 9.76785 3.39273C8.80129 4.93687 8.19664 6.63756 7.65449 8.35675C7.14141 9.98485 6.73007 11.6386 6.46263 13.325C6.326 14.1846 5.71699 14.6457 4.89723 14.5404C4.14433 14.4436 3.69665 13.8559 3.85653 12.9707C4.30275 10.4958 5.06583 8.10627 6.07164 5.79504C6.77368 4.18116 7.54984 2.60714 8.80129 1.30921C9.17047 0.926372 9.57018 0.587658 10.0397 0.338603C11.1196 -0.233512 11.8144 -0.0897715 12.5687 0.839559C12.6705 1.26651 12.7722 1.69346 12.8725 2.12041C12.9364 3.90649 12.592 5.64988 12.2882 7.39753C12.0469 7.93264 11.996 8.50476 11.8928 9.14945C12.2853 8.778 12.3391 8.31547 12.5731 7.95114L12.5803 7.95684ZM10.0164 22.4291C9.21262 22.4348 8.65303 22.4063 8.15739 22.735C7.64576 23.0752 7.58472 23.6686 8.02949 24.0444C8.9728 24.8413 11.3216 24.4628 11.9539 23.421C12.108 23.1677 12.1094 23.0097 11.8042 22.8731C11.1559 22.5828 10.4844 22.412 10.0164 22.4291Z" fill="var(--fill-0, white)"/>
</g>
</svg>
