<svg width="22" height="22" viewBox="0 0 22 22" fill="none" xmlns="http://www.w3.org/2000/svg">
<g clip-path="url(#clip0_40000823_26456)">
<path fill-rule="evenodd" clip-rule="evenodd" d="M18.6391 3.1858C16.5884 1.13245 13.861 0.00106952 10.9549 0C4.96676 0 0.093262 4.87298 0.0911658 10.8627C0.090139 12.7775 0.590717 14.6465 1.54135 16.2936L0 21.9234L5.75902 20.4127C7.34563 21.2785 9.13228 21.7343 10.9502 21.7348H10.9549C16.942 21.7348 21.8161 16.8613 21.8181 10.8716C21.8192 7.96868 20.6904 5.2397 18.6391 3.18631V3.1858ZM10.9549 19.9002H10.9513C9.33125 19.8998 7.74203 19.4642 6.35542 18.6418L6.02571 18.4459L2.60813 19.3423L3.52021 16.0102L3.30558 15.6685C2.40184 14.2308 1.92419 12.5692 1.92522 10.8633C1.92732 5.88505 5.9778 1.83457 10.9586 1.83457C13.3703 1.83564 15.6373 2.77587 17.3421 4.48282C19.047 6.18926 19.9851 8.45831 19.9841 10.8705C19.9819 15.8492 15.9316 19.8998 10.9549 19.8998V19.9002ZM15.9076 13.138C15.6361 13.0021 14.3017 12.3457 14.0527 12.2551C13.8037 12.1644 13.623 12.1191 13.4422 12.391C13.2614 12.663 12.7411 13.2745 12.5827 13.4552C12.4243 13.6365 12.266 13.6589 11.9946 13.5229C11.7233 13.387 10.8486 13.1005 9.81155 12.1759C9.00471 11.456 8.45981 10.5674 8.30152 10.2954C8.14314 10.0236 8.28483 9.87666 8.42024 9.74173C8.54212 9.61989 8.69164 9.42456 8.82759 9.26618C8.96355 9.10781 9.00834 8.99431 9.09895 8.81352C9.18965 8.63221 9.1443 8.47397 9.07662 8.33792C9.00886 8.20201 8.4661 6.86588 8.23949 6.32261C8.01912 5.79341 7.79521 5.86528 7.62905 5.85643C7.47063 5.8486 7.28993 5.84706 7.10866 5.84706C6.9274 5.84706 6.63358 5.91474 6.3846 6.18669C6.13562 6.45852 5.43448 7.11542 5.43448 8.45095C5.43448 9.78657 6.40702 11.0779 6.54297 11.2592C6.67889 11.4404 8.4572 14.1819 11.1799 15.3581C11.8274 15.6378 12.3332 15.805 12.7275 15.93C13.3776 16.1368 13.9693 16.1076 14.437 16.0378C14.9585 15.9597 16.043 15.381 16.2691 14.747C16.4951 14.1131 16.4951 13.5693 16.4274 13.4562C16.3597 13.3432 16.1785 13.275 15.9071 13.139L15.9076 13.138Z" fill="black" fill-opacity="0.86"/>
</g>
<defs>
<clipPath id="clip0_40000823_26456">
<rect width="21.8182" height="21.9234" fill="white"/>
</clipPath>
</defs>
</svg>
