<svg width="32" height="33" viewBox="0 0 32 33" fill="none" xmlns="http://www.w3.org/2000/svg">
<path d="M18.4899 0C21.0954 0.660553 23.5118 1.9438 25.5204 3.73229C26.9849 4.78932 28.168 6.22818 28.9106 7.92165C29.0108 8.09772 29.1068 8.27671 29.201 8.4573C30.1452 8.4705 31.0992 8.28303 31.9952 7.88045C32.0569 9.28216 31.5268 10.6806 30.4821 11.6942C32.9065 20.3452 28.0324 29.4154 19.4002 32.1236C11.8348 34.4967 3.84577 31.2102 0 24.6494C1.07066 24.4812 2.14286 24.2323 3.20814 23.8981C4.44697 23.5095 5.62657 23.0202 6.74207 22.4445C6.26276 22.241 5.79546 21.9883 5.34881 21.6837C2.20031 19.5361 1.06293 15.5438 2.39269 12.1388C2.77459 12.4921 3.187 12.8228 3.62976 13.1248C5.49703 14.3983 7.62585 14.9925 9.72599 14.9665C9.54626 14.3628 9.41819 13.7341 9.35132 13.0846C8.77291 7.45993 12.8643 2.43069 18.489 1.85225C18.5432 1.84667 18.5977 1.84355 18.6519 1.83883C18.6237 1.22781 18.5703 0.613867 18.4899 0ZM24.8899 7.17423C24.0563 5.73047 22.7466 4.92627 21.9644 5.37756C21.1823 5.82913 21.2237 7.36597 22.0574 8.80993C22.891 10.2536 24.2007 11.0579 24.9829 10.6066C25.765 10.155 25.7236 8.61819 24.8899 7.17423Z" fill="url(#paint0_linear_40000180_1345)"/>
<defs>
<linearGradient id="paint0_linear_40000180_1345" x1="16" y1="0" x2="26.5" y2="41" gradientUnits="userSpaceOnUse">
<stop stop-color="white"/>
<stop offset="1" stop-color="#EEE9FE"/>
</linearGradient>
</defs>
</svg>
