<svg width="41" height="43" viewBox="0 0 41 43" fill="none" xmlns="http://www.w3.org/2000/svg">
<path d="M23.6914 0C27.0274 0.845903 30.1211 2.48796 32.6934 4.77734C34.5792 6.13607 36.1006 7.98883 37.0527 10.1699C37.177 10.389 37.2969 10.6114 37.4141 10.8359C38.6236 10.8528 39.8455 10.6123 40.9932 10.0967C41.0722 11.8924 40.3932 13.6838 39.0547 14.9824C42.1612 26.0667 35.9166 37.6885 24.8564 41.1582C15.1629 44.199 4.92717 39.9876 0 31.5811C1.37188 31.3656 2.74635 31.0473 4.11133 30.6191C5.69841 30.1212 7.20954 29.4943 8.63867 28.7568C8.02441 28.496 7.4259 28.1726 6.85352 27.7822C2.81967 25.0309 1.36237 19.9162 3.06543 15.5537C3.55481 16.0064 4.084 16.4295 4.65137 16.8164C7.04324 18.4475 9.77038 19.2093 12.4609 19.1768C12.2305 18.4027 12.0671 17.5964 11.9814 16.7637C11.2405 9.5573 16.4821 3.11512 23.6885 2.37402C23.7585 2.36683 23.8286 2.36251 23.8984 2.35645C23.8623 1.57324 23.7945 0.786851 23.6914 0ZM30.918 9.85938C30.0794 8.40686 28.7614 7.59751 27.9746 8.05176C27.1882 8.50621 27.23 10.0517 28.0684 11.5039C28.907 12.9564 30.2249 13.7657 31.0117 13.3115C31.7984 12.8573 31.7564 11.3118 30.918 9.85938Z" fill="#1F2937"/>
</svg>
